<svg xmlns="http://www.w3.org/2000/svg" xmlns:xlink="http://www.w3.org/1999/xlink" width="400" height="240" viewBox="0 0 400 240">
  <defs>
    <polygon id="logo-mshl-a" points="19.5 32.787 19.5 1.274 1.37 1.274 1.37 32.787 19.5 32.787"/>
  </defs>
  <g fill="none" fill-rule="evenodd" transform="translate(0 1)">
    <path fill="#004A97" d="M31.9074545 204.148182C32.1092727 205.700909 33.3656364 206.61 34.7710909 206.61L35.3965455 206.61 35.3965455 207.002727 26.8547273 207.002727 26.8547273 206.631818 27.4674545 206.631818C28.3129091 206.63 29.0747273 205.800909 28.9983636 204.953636L27.2165455 185.179091 18.9583636 203.540909C18.9583636 203.540909 17.8638182 205.928182 17.6110909 207.553636L17.2401818 207.553636 7.19109091 185.75 5.46745455 204.953636C5.39109091 205.800909 6.15109091 206.63 6.99836364 206.631818L7.61109091 206.631818 7.61109091 207.002727.000181818182 207.002727.000181818182 206.61.625636364 206.61C2.02927273 206.61 3.28745455 205.700909 3.48927273 204.148182L6.44563636 178.946364 6.80927273 178.946364 17.7765455 202.657273 28.4983636 178.959091 28.8565455 178.959091 31.9074545 204.148182zM53.2301818 197.848545L48.8156364 187.094 44.272 197.848545 53.2301818 197.848545zM58.9010909 204.321273C59.7029091 205.935818 60.8847273 206.610364 61.9356364 206.610364L62.232 206.610364 62.232 207.003091 54.1592727 207.003091 54.1592727 206.614 54.472 206.614C55.3683636 206.614 56.3756364 205.761273 55.8610909 204.254L53.7138182 199.024909 43.7738182 199.024909 41.6101818 204.146727C41.0101818 205.719455 42.0429091 206.614 42.9610909 206.614L43.272 206.614 43.272 207.003091 35.7847273 207.003091 35.7847273 206.610364 36.0974545 206.610364C37.1410909 206.610364 38.372 205.943091 39.1774545 204.341273L47.3138182 186.923091C47.3010909 186.923091 48.7447273 183.903091 48.8265455 182.875818L49.1974545 182.875818 58.9010909 204.321273zM64.1970909 207.003455L64.2043636 206.610727 64.728 206.610727C66.1898182 206.610727 67.3698182 205.661636 67.3989091 204.481636L67.3989091 185.947091C67.3698182 184.768909 66.1898182 183.818 64.728 183.818L64.2025455 183.818 64.1952727 183.423455 73.0970909 183.423455 73.0970909 183.818 72.568 183.818C71.1389091 183.818 69.9716364 184.730727 69.9025455 185.878L69.9025455 204.514364C69.9498182 205.678 71.1261818 206.610727 72.5698182 206.610727L73.0934545 206.610727 73.1007273 207.003455 64.1970909 207.003455zM89.4847273 197.005091C90.6974545 198.023273 91.2501818 199.697818 91.2647273 201.226909 91.2956364 204.732364 88.1865455 207.554182 84.3083636 207.554182 81.9792727 207.554182 78.9610909 206.985091 77.5301818 205.703273 77.2829091 204.656 77.3829091 202.343273 77.9210909 200.823273L78.3738182 200.823273C78.0265455 204.363273 80.4101818 206.474182 83.8774545 206.374182 87.1247273 206.283273 89.112 204.588727 89.112 202.036 89.112 200.812364 88.6938182 199.812364 87.6810909 198.925091L79.8210909 192.859636C78.3574545 191.608727 77.9629091 189.977818 77.9429091 188.614182 77.8956364 185.419636 80.8029091 182.876 84.4392727 182.876 86.2392727 182.876 87.4483636 183.036 88.3265455 183.239636L89.6392727 183.239636 89.6992727 187.514182 89.2501818 187.514182C89.2501818 185.336 87.792 184.039636 84.7101818 184.039636 82.0847273 184.039636 79.972 185.697818 79.9865455 187.788727 79.9938182 188.797818 80.2974545 189.892364 81.5301818 190.883273L89.4847273 197.005091zM118.969818 195.215455C118.969818 188.571818 114.400727 184.051818 108.620727 184.051818 102.838909 184.051818 98.2716364 188.571818 98.2716364 195.215455 98.2716364 201.859091 102.838909 206.379091 108.620727 206.379091 114.400727 206.379091 118.969818 201.859091 118.969818 195.215455M121.880727 195.215455C121.880727 202.519091 115.951636 207.553636 108.620727 207.553636 101.289818 207.553636 95.3607273 202.519091 95.3607273 195.215455 95.3607273 187.911818 101.289818 182.875455 108.620727 182.875455 115.951636 182.875455 121.880727 187.911818 121.880727 195.215455M152.854727 183.425636L152.849273 183.818364 152.194727 183.818364C151.031091 183.818364 150.080182 184.687455 150.011091 185.785636L150.011091 202.542C150.011091 205.072909 150.383818 207.554727 150.383818 207.554727L150.011091 207.554727 129.572909 188.162 129.572909 204.558364C129.594727 205.696545 130.565636 206.612909 131.760182 206.612909L132.414727 206.612909 132.420182 207.005636 124.991091 207.005636 124.996545 206.612909 125.651091 206.612909C126.845636 206.612909 127.816545 205.696545 127.838364 204.558364L127.838364 187.747455C127.838364 185.063818 127.462 182.838364 127.462 182.838364L127.885636 182.858364 148.276545 202.076545 148.276545 185.782C148.205636 184.685636 147.254727 183.818364 146.091091 183.818364L145.438364 183.818364 145.432909 183.425636 152.854727 183.425636zM171.506182 205.812L179.340727 205.812C185.373455 205.812 189.113455 201.790182 189.113455 195.232 189.113455 188.648364 185.373455 184.612 179.340727 184.612L171.506182 184.612 171.506182 205.812zM179.320727 183.430182C187.071636 183.430182 191.955273 187.913818 191.955273 195.230182 191.955273 202.530182 187.071636 207.004727 179.320727 207.004727L166.213455 207.004727 166.220727 206.612 166.742545 206.612C167.982545 206.612 168.913455 205.648364 168.948 204.479273L168.948 185.935636C168.906182 184.695636 167.935273 183.815636 166.700727 183.815636L166.220727 183.815636 166.213455 183.426545 179.320727 183.430182zM211.456545 207.005091L195.492909 207.005091 195.500182 206.612364 196.040182 206.612364C197.307455 206.612364 198.262 205.685091 198.309273 204.526909L198.309273 185.877818C198.309273 184.705091 197.316545 183.819636 196.040182 183.819636L195.500182 183.819636 195.492909 183.426909 206.971091 183.426909C208.552909 183.414182 210.676545 183.076 211.362 182.810545L211.362 187.257818 210.934727 187.252364 210.934727 186.648727C210.934727 185.545091 210.160182 184.652364 208.963818 184.626909L200.814727 184.626909 200.814727 194.625091 207.529273 194.625091C208.618364 194.603273 209.122 193.865091 209.122 192.956L209.122 192.457818 209.549273 192.452364 209.549273 197.972364 209.122 197.968727 209.122 197.470545C209.122 196.588727 208.647455 195.865091 207.622 195.805091L200.814727 195.805091 200.814727 205.801455 206.960182 205.801455C210.736545 205.752364 212.080182 203.910545 213.196545 201.365091L213.622 201.365091 211.456545 207.005091zM244.904545 201.366L242.739091 207.004182 226.773636 207.004182 226.780909 206.611455 227.320909 206.611455C228.588182 206.611455 229.542727 205.684182 229.588182 204.524182L229.588182 185.949636C229.564545 184.767818 228.524545 183.818727 227.240909 183.818727L226.777273 183.818727 226.771818 183.426 234.913636 183.426 234.906364 183.818727 234.444545 183.818727C233.164545 183.818727 232.124545 184.766 232.097273 185.944182L232.097273 205.800545 238.246364 205.800545C242.019091 205.749636 243.362727 203.907818 244.479091 201.366L244.904545 201.366zM262.923091 197.848545L258.508545 187.094 253.964909 197.848545 262.923091 197.848545zM268.594 204.321273C269.395818 205.935818 270.577636 206.610364 271.628545 206.610364L271.924909 206.610364 271.924909 207.003091 263.854 207.003091 263.854 206.614 264.166727 206.614C265.061273 206.614 266.068545 205.761273 265.554 204.254L263.408545 199.024909 253.466727 199.024909 251.303091 204.146727C250.703091 205.719455 251.735818 206.614 252.654 206.614L252.964909 206.614 252.964909 207.003091 245.477636 207.003091 245.477636 206.610364 245.790364 206.610364C246.834 206.610364 248.064909 205.943091 248.870364 204.341273L257.006727 186.923091C256.994 186.923091 258.437636 183.903091 258.519455 182.875818L258.890364 182.875818 268.594 204.321273zM296.005455 195.416C297.576364 196.866909 297.98 198.619636 297.98 200.206909 297.98 204.552364 295.14 207.554182 290.621818 207.554182 288.694545 207.554182 285.512727 207.003273 283.969091 205.406909 283.676364 204.194182 283.825455 201.690545 284.423636 199.928727L284.767273 199.928727C284.374545 203.977818 286.938182 206.570545 290.434545 206.374182 293.303636 206.214182 295.7 204.248727 295.7 201.110545 295.7 199.574182 295.14 198.357818 294.156364 197.446909L286.630909 190.456C285.041818 189.006909 284.501818 187.108727 284.501818 185.586909 284.501818 182.274182 286.927273 178.945091 291.407273 178.945091 292.438182 178.945091 293.734545 179.121455 294.776364 179.348727L296.334545 179.348727 296.334545 179.816 296.334545 184.170545 295.956364 184.170545C295.965455 181.657818 293.983636 180.125091 291.534545 180.125091 288.638182 180.125091 286.701818 182.248727 286.701818 184.643273 286.701818 185.668727 287.045455 187.121455 288.283636 188.266909L296.005455 195.416zM317.076182 197.848545L312.659818 187.094 308.116182 197.848545 317.076182 197.848545zM322.747091 204.321273C323.548909 205.935818 324.730727 206.610364 325.779818 206.610364L326.076182 206.610364 326.076182 207.003091 318.005273 207.003091 318.005273 206.614 318.318 206.614C319.214364 206.614 320.219818 205.761273 319.705273 204.254L317.559818 199.024909 307.619818 199.024909 305.454364 204.146727C304.854364 205.719455 305.888909 206.614 306.807091 206.614L307.118 206.614 307.118 207.003091 299.628909 207.003091 299.628909 206.610364 299.941636 206.610364C300.987091 206.610364 302.216182 205.943091 303.023455 204.341273L311.158 186.923091C311.147091 186.923091 312.590727 183.903091 312.670727 182.875818L313.043455 182.875818 322.747091 204.321273zM355.119455 183.425636L355.114 183.818364 354.461273 183.818364C353.295818 183.818364 352.346727 184.687455 352.277636 185.785636L352.277636 202.542C352.277636 205.072909 352.650364 207.554727 352.650364 207.554727L352.277636 207.554727 331.837636 188.162 331.837636 204.558364C331.861273 205.696545 332.830364 206.612909 334.026727 206.612909L334.681273 206.612909 334.686727 207.005636 327.257636 207.005636 327.263091 206.612909 327.917636 206.612909C329.112182 206.612909 330.081273 205.696545 330.104909 204.558364L330.104909 187.747455C330.104909 185.063818 329.728545 182.838364 329.728545 182.838364L330.152182 182.858364 350.541273 202.076545 350.541273 185.782C350.470364 184.685636 349.521273 183.818364 348.357636 183.818364L347.704909 183.818364 347.699455 183.425636 355.119455 183.425636zM374.254727 183.384727C375.814727 183.384727 377.962 183.039273 378.643818 182.768364L378.643818 187.193818 378.225636 187.188364 378.225636 186.584727C378.225636 185.481091 377.452909 184.584727 376.260182 184.564727L369.147455 184.564727 369.147455 204.530182C369.200182 205.688364 370.209273 206.610182 371.452909 206.610182L371.909273 206.610182 371.914727 207.002909 363.816545 207.002909 363.822 206.610182 364.278364 206.610182C365.538364 206.610182 366.562 205.661091 366.583818 204.481091L366.583818 184.564727 359.467455 184.564727C358.274727 184.584727 357.503818 185.481091 357.503818 186.584727L357.503818 187.188364 357.083818 187.193818 357.083818 182.768364C357.765636 183.039273 359.911091 183.384727 361.458364 183.384727L374.254727 183.384727z"/>
    <g transform="translate(380 174.218)">
      <mask id="logo-mshl-b" fill="#fff">
        <use xlink:href="#logo-mshl-a"/>
      </mask>
      <path fill="#004A97" d="M10.6007273,6.418 C12.2643636,4.62527273 13.9261818,2.87254545 15.5898182,1.27436364 C16.2025455,1.88527273 16.7770909,2.57436364 17.1970909,3.34345455 C15.0898182,4.57618182 12.9825455,5.65436364 10.8752727,6.69254545 L10.6007273,6.418 Z M17.3352727,32.7870909 L1.37163636,32.7870909 L1.37890909,32.3943636 L1.91890909,32.3943636 C3.18618182,32.3943636 4.13890909,31.4670909 4.188,30.3089091 L4.188,11.6598182 C4.188,10.4870909 3.19345455,9.60163636 1.91709091,9.60163636 L1.37890909,9.60163636 L1.36981818,9.20709091 L12.8498182,9.20709091 C14.4298182,9.19618182 16.5552727,8.858 17.2389091,8.59072727 L17.2389091,13.038 L16.8116364,13.0343636 L16.8116364,12.4289091 C16.8116364,11.3270909 16.0370909,10.4325455 14.8425455,10.4089091 L6.69527273,10.4089091 L6.69527273,20.4052727 L13.408,20.4052727 C14.4989091,20.3852727 15.0007273,19.6452727 15.0007273,18.738 L15.0007273,18.2398182 L15.428,18.2343636 L15.428,23.7543636 L15.0007273,23.7489091 L15.0007273,23.2507273 C15.0007273,22.3670909 14.5243636,21.6470909 13.4989091,21.5852727 L6.69527273,21.5852727 L6.69527273,31.5834545 L12.8389091,31.5834545 C16.6152727,31.5325455 17.9589091,29.6907273 19.0734545,27.1470909 L19.5007273,27.1470909 L17.3352727,32.7870909 Z" mask="url(#logo-mshl-b)"/>
    </g>
    <path fill="#AC162C" d="M129.718182 236.740545L132.08 236.740545C134.701818 236.740545 136.329091 234.713273 136.329091 231.302364 136.329091 227.875091 134.714545 225.829636 132.08 225.829636L129.718182 225.829636 129.718182 236.740545zM132.329091 225.004182C136.827273 225.004182 139.529091 227.353273 139.529091 231.302364 139.529091 235.247818 136.827273 237.580545 132.329091 237.580545L125.250909 237.580545 125.250909 237.371455 125.512727 237.371455C126.154545 237.371455 126.674545 236.864182 126.685455 236.236909L126.685455 226.307818C126.654545 225.671455 126.14 225.213273 125.490909 225.213273L125.24 225.213273 125.24 225.004182 132.329091 225.004182zM155.545636 225.004182L155.545636 225.213273 155.258364 225.213273C154.742 225.213273 154.314727 225.564182 154.300182 226.080545L154.300182 233.007818C154.300182 236.026 152.382 237.853273 149.023818 237.853273 144.992909 237.853273 143.012909 236.044182 143.012909 233.047818L143.012909 226.096909C143.009273 225.571455 142.580182 225.213273 142.056545 225.213273L141.769273 225.213273 141.769273 225.004182 147.282 225.004182 147.282 225.213273 146.980182 225.213273C146.458364 225.213273 146.040182 225.571455 146.036545 226.096909L146.036545 232.913273C146.036545 235.487818 147.294727 237.018727 149.414727 237.018727 151.605636 237.018727 152.902 235.571455 152.918364 233.146L152.918364 226.093273C152.898364 225.569636 152.482 225.213273 151.960182 225.213273L151.672909 225.213273 151.672909 225.004182 155.545636 225.004182zM174.106545 237.580364L174.108364 237.371273 174.373818 237.371273C175.102909 237.371273 175.695636 236.791273 175.717455 236.069455L175.717455 230.720364 168.921091 230.720364 168.921091 236.053091C168.933818 236.784 169.530182 237.371273 170.262909 237.371273L170.528364 237.371273 170.532 237.580364 164.164727 237.580364 164.168364 237.371273 164.433818 237.371273C165.166545 237.371273 165.762909 236.784 165.775636 236.053091L165.775636 224.436727C165.757455 223.707636 165.164727 223.116727 164.433818 223.116727L164.168364 223.116727 164.164727 222.907636 170.532 222.907636 170.528364 223.116727 170.262909 223.116727C169.533818 223.116727 168.941091 223.711273 168.921091 224.436727L168.921091 229.834909 175.717455 229.834909 175.717455 224.436727C175.690182 223.716727 175.099273 223.116727 174.373818 223.116727L174.110182 223.116727 174.106545 222.907636 180.473818 222.907636 180.470182 223.116727 180.204727 223.116727C179.472 223.116727 178.875636 223.704 178.862909 224.434909L178.862909 236.053091C178.877455 236.784 179.472 237.371273 180.204727 237.371273L180.470182 237.371273 180.473818 237.580364 174.106545 237.580364zM189.784727 233.468182L187.930182 229.100909 186.050182 233.468182 189.784727 233.468182zM194.426545 236.202727C194.832 237.044545 195.499273 237.37 196.072 237.37L196.230182 237.37 196.230182 237.580909 190.070182 237.580909 190.070182 237.373636 190.235636 237.373636C190.717455 237.373636 191.261091 236.964545 190.948364 236.208182L190.135636 234.291818 185.695636 234.291818 184.859273 236.235455C184.570182 236.975455 185.110182 237.373636 185.586545 237.373636L185.752 237.373636 185.752 237.580909 181.564727 237.580909 181.564727 237.37 181.732 237.37C182.264727 237.37 182.935636 237.064545 183.335636 236.279091L187.659273 226.968182C187.802909 226.644545 188.572 225.019091 188.637455 224.426364L188.815636 224.426364 194.426545 236.202727zM210.29 225.004182L210.29 225.213273 210.002727 225.213273C209.486364 225.213273 209.059091 225.564182 209.044545 226.080545L209.044545 233.007818C209.044545 236.026 207.128182 237.853273 203.77 237.853273 199.739091 237.853273 197.759091 236.044182 197.759091 233.047818L197.759091 226.096909C197.755455 225.571455 197.324545 225.213273 196.802727 225.213273L196.513636 225.213273 196.513636 225.004182 202.026364 225.004182 202.026364 225.213273 201.726364 225.213273C201.202727 225.213273 200.784545 225.571455 200.780909 226.096909L200.780909 232.913273C200.780909 235.487818 202.040909 237.018727 204.160909 237.018727 206.35 237.018727 207.646364 235.571455 207.662727 233.146L207.662727 226.093273C207.642727 225.569636 207.226364 225.213273 206.704545 225.213273L206.417273 225.213273 206.417273 225.004182 210.29 225.004182zM224.226364 227.988909L224.011818 227.988909 224.011818 227.794364C224.020909 226.598 223.319091 225.839818 222.093636 225.823455L219.673636 225.823455 219.673636 236.279818C219.688182 236.901636 220.202727 237.372545 220.83 237.372545L221.051818 237.372545 221.051818 237.581636 215.259091 237.581636 215.259091 237.372545 215.480909 237.372545C216.113636 237.372545 216.619091 236.890727 216.637273 236.259818L216.637273 225.825273 214.217273 225.825273C212.991818 225.841636 212.297273 226.598 212.297273 227.794364L212.297273 227.988909 212.082727 227.988909 212.082727 224.663455C212.43 224.796182 213.502727 224.985273 214.284545 224.985273L222.020909 224.985273C222.806364 224.985273 223.955455 224.796182 224.224545 224.663455L224.226364 227.988909z"/>
    <polygon fill="#AC162C" points="224.846 230.771 231.133 230.771 231.311 231.466 231.133 232.173 224.846 232.173 224.668 231.466"/>
    <path fill="#AC162C" d="M244.748364 237.582182L233.895636 237.582182 233.899273 237.373091 234.164727 237.373091C234.897455 237.373091 235.492 236.785818 235.506545 236.053091L235.506545 224.436727C235.492 223.705818 234.897455 223.118545 234.164727 223.118545L233.897455 223.118545 233.895636 222.909455 240.262909 222.909455 240.259273 223.118545 239.995636 223.118545C239.259273 223.118545 238.664727 223.705818 238.650182 224.436727L238.650182 236.685818 241.402909 236.685818C243.497455 236.685818 244.857455 235.384 245.504727 233.304L245.713818 233.304 244.748364 237.582182zM254.631091 233.468182L252.776545 229.100909 250.896545 233.468182 254.631091 233.468182zM259.272909 236.202727C259.678364 237.044545 260.345636 237.37 260.920182 237.37L261.076545 237.37 261.076545 237.580909 254.916545 237.580909 254.916545 237.373636 255.082 237.373636C255.565636 237.373636 256.107455 236.964545 255.796545 236.208182L254.982 234.291818 250.542 234.291818 249.705636 236.235455C249.418364 236.975455 249.956545 237.373636 250.432909 237.373636L250.598364 237.373636 250.598364 237.580909 246.411091 237.580909 246.411091 237.37 246.578364 237.37C247.111091 237.37 247.782 237.064545 248.182 236.279091L252.505636 226.968182C252.649273 226.644545 253.420182 225.019091 253.483818 224.426364L253.662 224.426364 259.272909 236.202727zM274.487273 232.326545L274.734545 235.486545C273.914545 236.815636 272.198182 237.853818 269.470909 237.853818 264.807273 237.832 261.914545 235.441091 261.914545 231.286545 261.914545 227.179273 264.74 224.737455 269.470909 224.737455 271.387273 224.737455 273.089091 225.153818 274.192727 225.692L274.192727 229.021091 274.029091 229.021091C273.318182 226.446545 271.763636 225.561091 269.685455 225.561091 266.64 225.561091 265.109091 227.826545 265.109091 231.244727 265.109091 234.721091 266.721818 236.952 269.472727 237.017455 272.465455 237.026545 273.805455 235.741091 274.323636 232.326545L274.487273 232.326545zM159.804364 33.7310909L161.866182 30.1583636C159.086182 26.5947273 156.277091 23.0565455 153.518909 19.4747273L145.548 19.4747273 145.548 41.6147273C145.653455 41.6710909 145.757091 41.7256364 145.862545 41.7801818L159.804364 33.7310909zM168.034909 19.4749091L154.009455 19.4749091C156.896727 22.5912727 159.740364 25.7458182 162.605818 28.8785455L168.034909 19.4749091zM237.702909 33.7310909L251.644727 41.7801818C251.750182 41.7256364 251.853818 41.6710909 251.959273 41.6147273L251.959273 19.4747273 243.986545 19.4747273C241.228364 23.0565455 238.419273 26.5947273 235.639273 30.1583636L237.702909 33.7310909zM243.496545 19.4749091L229.471091 19.4749091 234.900182 28.8785455C237.767455 25.7458182 240.609273 22.5912727 243.496545 19.4749091M145.548364 86.9367273L143.330182 83.0967273C138.979273 83.6803636 134.633818 84.3058182 130.279273 84.8694545L126.073818 92.1549091 144.833818 102.985818C145.072 102.838545 145.310182 102.689455 145.548364 102.542182L145.548364 86.9367273zM137.316727 72.6798182L130.562182 84.3798182C134.565818 83.498 138.578545 82.6670909 142.584 81.8052727L137.316727 72.6798182zM251.958909 58.4238182L254.175273 62.2638182C258.526182 61.6783636 262.871636 61.0547273 267.226182 60.4892727L271.433455 53.2056364 252.673455 42.3747273C252.435273 42.522 252.197091 42.6692727 251.958909 42.8183636L251.958909 58.4238182zM260.188727 72.6798182L266.945091 60.9798182C262.941455 61.8616364 258.928727 62.6925455 254.921455 63.5543636L260.188727 72.6798182zM184.497091 19.4749091L198.238909 11.5421818C198.246182 11.3476364 198.251636 11.1530909 198.258909 10.9585455L179.278909.000363636364 175.006182 7.40036364C176.689818 11.4149091 178.315273 15.4512727 179.973455 19.4749091L184.497091 19.4749091z"/>
    <path fill="#AC162C" d="M174.749273 7.84581818L168.034727 19.4749091 178.514727 19.4749091C177.260182 15.5985455 175.980182 11.7312727 174.749273 7.84581818M222.758 137.514727L229.470727 125.885636 218.992545 125.885636C220.245273 129.762 221.525273 133.629273 222.758 137.514727M213.010182 125.884727L199.268364 133.819273C199.261091 134.013818 199.253818 134.206545 199.246545 134.402909L218.226545 145.359273 222.501091 137.961091C220.815636 133.946545 219.190182 129.910182 217.532 125.884727L213.010182 125.884727zM130.562545 60.9807273L137.317091 72.6807273 142.584364 63.5552727C138.578909 62.6934545 134.566182 61.8625455 130.562545 60.9807273M145.548364 58.4238182L145.548364 42.8183636C145.310182 42.6692727 145.072 42.522 144.833818 42.3747273L126.073818 53.2056364 130.279273 60.4892727C134.633818 61.0547273 138.979273 61.6783636 143.330182 62.2638182L145.548364 58.4238182zM184.497091 125.884727L179.973455 125.884727C178.315273 129.910182 176.689818 133.946545 175.006182 137.961091L179.278909 145.359273 198.258909 134.402909C198.251636 134.206545 198.246182 134.013818 198.238909 133.819273L184.497091 125.884727zM168.034909 125.884727L174.749455 137.513818C175.980364 133.630182 177.260364 129.762909 178.514909 125.884727L168.034909 125.884727zM267.227091 84.87C262.870727 84.3063636 258.527091 83.6809091 254.174364 83.0954545L251.959818 86.9372727 251.959818 102.542727C252.196182 102.69 252.434364 102.837273 252.672545 102.986364L271.432545 92.1536364 267.227091 84.87zM266.942909 84.3790909L260.188364 72.6790909 254.921091 81.8045455C258.928364 82.6681818 262.941091 83.4990909 266.942909 84.3790909M213.010182 19.4749091L217.532 19.4749091C219.190182 15.4512727 220.815636 11.4149091 222.501091 7.40036364L218.226545.000363636364 199.246545 10.9585455 199.268364 11.5421818 213.010182 19.4749091zM229.471455 19.4749091L222.758727 7.84581818C221.526 11.7312727 220.246 15.5985455 218.991455 19.4749091L229.471455 19.4749091z"/>
    <path fill="#004A97" d="M221.552364 101.488545C217.492364 96.9085455 213.519636 92.2521818 209.501455 87.6358182L203.061455 80.0867273 206.423273 89.3758182C208.445091 95.1376364 210.523273 100.879455 212.492364 106.661273 214.497818 112.428545 216.448727 118.215818 218.383273 124.010364 218.583273 124.635818 218.788727 125.259455 218.992364 125.884909L229.470545 125.884909 243.496 125.884909C240.223273 122.352182 237.008727 118.764909 233.748727 115.219455 229.659636 110.663091 225.585091 106.095818 221.552364 101.488545M230.107091 92.0167273C224.710727 89.0912727 219.374364 86.064 214.007091 83.0876364L205.372545 78.1912727 211.718 85.7621818C215.603455 90.4894545 219.536182 95.1803636 223.378 99.9458182 227.252545 104.684 231.079818 109.462182 234.896182 114.251273 237.916182 118.138545 240.983455 121.984 243.987091 125.884L251.959818 125.884 251.959818 103.745818C250.074364 102.753091 248.190727 101.762182 246.301636 100.780364 240.888909 97.8876364 235.483455 94.9767273 230.107091 92.0167273M180.833273 21.5896364C183.002364 27.0078182 185.155091 32.4332727 187.258727 37.8769091 189.495091 43.5587273 191.624182 49.2805455 193.806 54.9841818L197.258727 64.2714545 197.302364 54.3805455C197.387818 48.2805455 197.415091 42.1805455 197.558727 36.0805455 197.660545 29.9805455 197.824182 23.8805455 198.002364 17.7805455 198.089636 15.7005455 198.164182 13.6205455 198.238727 11.5423636L184.496909 19.4750909 180.833273 21.5896364zM235.288182 67.5023636C229.259091 68.7023636 223.208182 69.7878182 217.168182 70.9314545L207.419091 72.6805455 217.168182 74.4296364C223.208182 75.5732727 229.259091 76.6587273 235.288182 77.8587273 240.853636 78.9278182 246.406364 80.0496364 251.959091 81.186L251.959091 64.1750909C246.406364 65.3096364 240.853636 66.4332727 235.288182 67.5023636M251.958909 42.8183636C250.320727 43.8365455 248.680727 44.8547273 247.048 45.882 241.811636 49.0874545 236.568 52.2783636 231.295273 55.4183636 226.040727 58.5910909 220.729818 61.6638182 215.448 64.7874545L206.889818 69.7401818 216.668 68.0747273C222.738909 67.0983636 228.797091 66.0674545 234.875273 65.1474545 240.562545 64.2510909 246.258909 63.4074545 251.958909 62.5783636L251.958909 58.4238182 251.958909 42.8183636zM212.491636 38.6990909C210.522545 44.4809091 208.444364 50.2209091 206.422545 55.9827273L203.060727 65.2736364 209.500727 57.7245455C213.518909 53.1081818 217.491636 48.4518182 221.551636 43.8718182 225.331636 39.5554545 229.148 35.2754545 232.978909 31.0045455L218.038909 22.3772727C216.217091 27.8281818 214.378909 33.2736364 212.491636 38.6990909M234.876182 80.2127273C228.796182 79.2945455 222.738 78.2618182 216.667091 77.2872727L206.888909 75.62 215.447091 80.5709091C220.730727 83.6963636 226.041636 86.7690909 231.294364 89.9436364 236.568909 93.0818182 241.810727 96.2727273 247.047091 99.4781818 248.681636 100.505455 250.319818 101.525455 251.959818 102.541818L251.959818 86.9363636 251.959818 82.7818182C246.259818 81.9545455 240.563455 81.1090909 234.876182 80.2127273M145.862545 41.7805455C147.640727 42.7169091 149.420727 43.6532727 151.204364 44.5787273 156.618909 47.4732727 162.022545 50.3823636 167.398909 53.3423636 172.795273 56.2696364 178.133455 59.2950909 183.500727 62.2714545L192.135273 67.1678182 185.789818 59.5987273C181.902545 54.8696364 177.971636 50.1805455 174.128 45.4150909 170.440727 40.9023636 166.793455 36.3532727 163.158909 31.7950909L159.804364 33.7314545 145.862545 41.7805455zM175.953091 43.8712727C180.013091 48.4530909 183.985818 53.1076364 188.004 57.7258182L194.444 65.2730909 191.082182 55.984C189.060364 50.2221818 186.982182 44.4803636 185.013091 38.6985455 183.125818 33.2730909 181.291273 27.8276364 179.467636 22.3785455L164.529455 31.004C168.358545 35.2749091 172.176727 39.5549091 175.953091 43.8712727M199.268182 11.5418182C199.342727 13.6218182 199.417273 15.7018182 199.504545 17.7818182 199.682727 23.8818182 199.844545 29.9818182 199.948182 36.0818182 200.091818 42.1818182 200.117273 48.28 200.202727 54.38L200.246364 64.2709091 203.700909 54.9854545C205.882727 49.2818182 208.011818 43.5581818 210.25 37.8763636 212.35 32.4327273 214.502727 27.0090909 216.673636 21.5890909L213.01 19.4745455 199.268182 11.5418182zM234.347091 31.7947273C230.712545 36.3529091 227.067091 40.902 223.378 45.4147273 219.536182 50.1801818 215.603455 54.8692727 211.718 59.5983636L205.370727 67.1692727 214.007091 62.2710909C219.374364 59.2947273 224.710727 56.2692727 230.107091 53.3438182 235.483455 50.3838182 240.888909 47.4747273 246.301636 44.5783636 248.087091 43.6529091 249.865273 42.7165455 251.645273 41.7801818L237.703455 33.7310909 234.347091 31.7947273zM145.548364 62.5778182C151.246545 63.4069091 156.942909 64.2505455 162.630182 65.1469091 168.708364 66.0669091 174.768364 67.0978182 180.837455 68.0741818L190.617455 69.7396364 182.059273 64.7887273C176.775636 61.6650909 171.464727 58.5905455 166.212 55.4178182 160.937455 52.2778182 155.693818 49.0869091 150.457455 45.8814545 148.824727 44.8541818 147.186545 43.836 145.548364 42.8178182L145.548364 58.4232727 145.548364 62.5778182zM162.217273 77.8583636C168.248182 76.6583636 174.299091 75.5729091 180.337273 74.4292727L190.086364 72.6801818 180.337273 70.9310909C174.299091 69.7874545 168.248182 68.702 162.217273 67.502 156.653636 66.4329091 151.099091 65.3110909 145.548182 64.1747273L145.548182 81.1856364C151.099091 80.0492727 156.653636 78.9274545 162.217273 77.8583636M174.127818 99.9454545C177.971455 95.18 181.902364 90.4890909 185.789636 85.7618182L192.135091 78.1927273 183.500545 83.0890909C178.133273 86.0636364 172.795091 89.0909091 167.398727 92.0163636 162.022364 94.9781818 156.618727 97.8872727 151.204182 100.78 149.315091 101.761818 147.431455 102.752727 145.547818 103.745455L145.547818 125.885455 153.520545 125.885455C156.522364 121.983636 159.591455 118.138182 162.611455 114.250909 166.426 109.461818 170.255091 104.683636 174.127818 99.9454545M145.548364 102.542182C147.186545 101.524 148.824727 100.505818 150.457455 99.4785455 155.693818 96.2730909 160.937455 93.0821818 166.212 89.9421818 171.464727 86.7694545 176.775636 83.6949091 182.059273 80.5712727L190.617455 75.6185455 180.837455 77.2858182C174.768364 78.2621818 168.708364 79.2930909 162.630182 80.2130909 156.942909 81.1094545 151.246545 81.9530909 145.548364 82.7821818L145.548364 86.9367273 145.548364 102.542182zM217.532545 125.884727C217.345273 125.432 217.161636 124.979273 216.974364 124.526545 214.703455 118.857455 212.447091 113.181091 210.248909 107.482909 208.012545 101.801091 205.883455 96.0774545 203.701636 90.3756364L200.247091 81.0883636 200.203455 90.9792727C200.118 97.0792727 200.090727 103.179273 199.948909 109.279273 199.854364 114.815636 199.708909 120.350182 199.550727 125.884727L213.010727 125.884727 217.532545 125.884727zM179.122545 124.009818C181.057091 118.215273 183.008 112.428 185.013455 106.660727 186.982545 100.878909 189.060727 95.1389091 191.082545 89.3770909L194.444364 80.0861818 188.004364 87.6352727C183.986182 92.2534545 180.013455 96.908 175.953455 101.488 171.922545 106.095273 167.846182 110.662545 163.757091 115.220727 160.497091 118.766182 157.282545 122.351636 154.008 125.884364L168.035273 125.884364 178.515273 125.884364C178.717091 125.258909 178.922545 124.637091 179.122545 124.009818M197.956 125.884727C197.797818 120.350182 197.652364 114.815636 197.557818 109.279273 197.416 103.179273 197.388727 97.0792727 197.303273 90.9792727L197.259636 81.0883636 193.805091 90.3756364C191.623273 96.0774545 189.494182 101.801091 187.257818 107.482909 185.057818 113.181091 182.803273 118.857455 180.532364 124.526545 180.345091 124.979273 180.159636 125.432 179.974182 125.884727L184.497818 125.884727 197.956 125.884727z"/>
  </g>
</svg>
